<svg id="svg" version="1.1" xmlns="http://www.w3.org/2000/svg" xmlns:xlink="http://www.w3.org/1999/xlink" width="48" height="48" viewBox="0, 0, 400,400"><g id="svgg"><path id="path0" d="M0.000 200.000 L 0.000 400.000 200.000 400.000 L 400.000 400.000 400.000 200.000 L 400.000 0.000 200.000 0.000 L 0.000 0.000 0.000 200.000 M256.142 131.183 C 268.262 134.471,276.578 143.639,278.260 155.566 L 278.467 157.031 270.100 157.031 L 261.734 157.031 261.475 155.957 C 258.710 144.488,243.544 140.927,232.316 149.111 C 224.752 154.624,221.374 170.254,224.835 183.733 C 230.198 204.620,259.603 204.440,263.487 183.496 L 263.759 182.031 255.122 182.031 L 246.484 182.031 246.484 175.488 L 246.484 168.945 262.891 168.945 L 279.297 168.945 279.297 190.137 L 279.297 211.328 272.656 211.328 L 266.016 211.328 266.003 206.152 L 265.991 200.977 265.161 202.148 C 253.145 219.117,223.872 216.486,212.871 197.449 C 203.836 181.816,205.134 157.482,215.745 143.555 C 224.141 132.535,241.515 127.214,256.142 131.183 M150.153 133.329 C 151.136 134.645,151.706 200.053,150.763 203.295 C 150.342 204.742,119.185 236.910,115.457 239.746 L 114.301 240.625 84.660 240.625 L 55.018 240.625 53.876 239.483 L 52.734 238.341 52.734 200.782 L 52.734 163.223 54.962 160.811 C 59.815 155.555,81.907 133.470,83.008 132.773 C 84.138 132.058,85.343 132.035,116.755 132.129 L 149.330 132.227 150.153 133.329 M196.484 171.680 L 196.484 211.328 188.281 211.328 L 180.078 211.328 180.078 171.680 L 180.078 132.031 188.281 132.031 L 196.484 132.031 196.484 171.680 M341.797 139.453 L 341.797 146.875 324.219 146.875 L 306.641 146.875 306.641 156.055 L 306.641 165.234 321.077 165.234 L 335.513 165.234 335.627 172.299 C 335.691 176.185,335.669 179.437,335.579 179.526 C 335.490 179.615,328.942 179.688,321.029 179.688 L 306.641 179.688 306.641 195.508 L 306.641 211.328 298.438 211.328 L 290.234 211.328 290.234 171.680 L 290.234 132.031 316.016 132.031 L 341.797 132.031 341.797 139.453 M90.430 149.169 C 88.359 150.457,70.335 168.991,69.718 170.468 C 68.952 172.302,68.853 198.384,69.609 199.141 C 69.884 199.415,71.204 199.609,72.799 199.609 L 75.520 199.609 89.947 184.961 L 104.375 170.313 109.718 170.313 C 117.109 170.313,116.797 170.018,116.797 176.998 L 116.797 182.468 100.229 199.144 L 83.661 215.820 76.498 216.016 L 69.336 216.211 69.221 219.286 C 69.036 224.240,67.281 223.828,88.550 223.828 C 103.112 223.828,106.912 223.722,107.923 223.287 C 108.628 222.984,114.712 217.178,121.777 210.067 L 134.375 197.388 134.375 173.521 L 134.375 149.654 133.507 149.046 C 132.052 148.027,92.083 148.141,90.430 149.169 M197.487 225.423 C 206.023 226.983,210.926 233.454,210.926 243.164 C 210.926 256.438,205.395 260.938,189.075 260.938 L 180.078 260.938 180.078 242.969 L 180.078 225.000 187.624 225.000 C 191.774 225.000,196.212 225.191,197.487 225.423 M187.109 243.218 L 187.109 255.185 191.703 254.996 C 200.687 254.626,203.320 251.944,203.320 243.164 C 203.320 234.370,200.080 231.250,190.945 231.250 L 187.109 231.250 187.109 243.218 M232.919 235.630 C 236.970 237.373,239.844 242.381,239.844 247.697 L 239.844 250.000 230.828 250.000 L 221.813 250.000 222.078 251.270 C 223.235 256.814,229.801 258.527,232.615 254.019 C 233.392 252.776,233.427 252.764,236.590 252.749 L 239.781 252.734 239.135 254.395 C 235.521 263.683,220.886 264.310,216.660 255.357 C 210.787 242.914,221.013 230.508,232.919 235.630 M262.515 235.359 C 263.100 235.662,264.049 236.469,264.625 237.152 L 265.671 238.395 267.113 237.043 C 271.575 232.860,279.055 233.897,281.378 239.020 C 282.122 240.662,282.208 241.707,282.351 250.879 L 282.507 260.938 278.949 260.938 L 275.391 260.938 275.391 252.136 C 275.391 240.859,274.881 239.443,271.007 239.962 C 267.312 240.458,266.797 241.994,266.797 252.527 L 266.797 260.938 263.281 260.938 L 259.766 260.938 259.764 251.855 C 259.762 240.508,259.229 239.198,254.943 240.002 C 251.696 240.611,251.172 242.357,251.172 252.564 L 251.172 260.938 247.656 260.938 L 244.141 260.938 244.141 248.047 L 244.141 235.156 247.461 235.156 L 250.781 235.156 250.790 236.816 C 250.798 238.444,250.812 238.461,251.474 237.661 C 253.914 234.710,259.149 233.619,262.515 235.359 M304.827 235.393 C 312.968 238.167,315.693 250.984,309.579 257.751 C 304.987 262.834,295.574 263.085,290.494 258.259 C 284.388 252.460,285.850 239.826,293.059 236.088 C 296.406 234.352,300.980 234.082,304.827 235.393 M224.726 240.609 C 223.443 241.391,222.572 242.734,222.118 244.629 L 221.860 245.703 227.563 245.703 L 233.265 245.703 233.001 244.434 C 232.196 240.574,227.980 238.625,224.726 240.609 M297.428 240.378 C 292.627 242.553,292.335 253.309,297.010 255.737 C 301.839 258.244,305.667 254.840,305.660 248.047 C 305.654 241.697,302.010 238.302,297.428 240.378 " stroke="none" fill="#f4f3f1" fill-rule="evenodd"></path><path id="path1" d="M240.625 130.341 C 219.153 132.502,205.954 150.356,207.176 175.586 C 207.875 190.010,212.460 199.948,221.620 206.890 C 234.708 216.811,255.749 214.950,264.179 203.126 C 265.082 201.859,265.908 200.814,266.016 200.802 C 266.123 200.790,266.157 203.153,266.092 206.054 L 265.973 211.328 272.635 211.328 L 279.297 211.328 279.297 190.234 L 279.297 169.141 262.891 169.141 L 246.484 169.141 246.484 175.599 L 246.484 182.058 254.980 182.031 C 259.653 182.016,263.592 182.010,263.732 182.017 C 264.176 182.041,262.874 186.422,261.667 188.963 C 254.924 203.164,233.635 202.834,226.423 188.416 C 222.355 180.285,222.471 164.532,226.661 156.138 C 233.824 141.786,254.524 140.225,260.735 153.568 C 261.272 154.721,261.713 155.972,261.715 156.348 C 261.718 156.977,262.371 157.031,269.922 157.031 L 278.125 157.031 278.125 155.922 C 278.125 140.495,260.331 128.357,240.625 130.341 M180.078 171.680 L 180.078 211.328 188.086 211.328 L 196.094 211.328 196.094 171.680 L 196.094 132.031 188.086 132.031 L 180.078 132.031 180.078 171.680 M290.625 171.680 L 290.625 211.328 298.535 211.328 L 306.445 211.328 306.445 195.410 L 306.445 179.492 320.996 179.390 L 335.547 179.287 335.547 172.261 L 335.547 165.234 321.094 165.234 L 306.641 165.234 306.641 155.859 L 306.641 146.484 324.219 146.484 L 341.797 146.484 341.797 139.258 L 341.797 132.031 316.211 132.031 L 290.625 132.031 290.625 171.680 M180.078 243.102 L 180.078 261.008 189.551 260.854 C 198.268 260.713,199.202 260.630,201.268 259.815 C 213.451 255.009,214.305 233.313,202.550 227.258 C 199.700 225.789,198.682 225.648,189.355 225.421 L 180.077 225.195 180.078 243.102 M197.291 231.874 C 201.324 233.146,203.516 237.099,203.516 243.097 C 203.516 252.048,200.386 255.078,191.140 255.078 L 187.109 255.078 187.109 242.946 L 187.109 230.813 191.309 231.062 C 193.618 231.199,196.310 231.565,197.291 231.874 M223.828 235.109 C 216.558 237.494,213.125 246.318,216.337 254.365 C 220.365 264.457,236.163 263.939,239.244 253.613 C 239.500 252.754,239.436 252.734,236.443 252.734 L 233.381 252.734 232.656 254.081 C 230.015 258.985,221.930 256.435,221.884 250.684 L 221.875 249.609 230.916 249.609 L 239.957 249.609 239.736 246.972 C 238.999 238.184,231.501 232.592,223.828 235.109 M254.852 235.320 C 254.191 235.608,253.005 236.410,252.216 237.103 L 250.781 238.362 250.781 236.984 L 250.781 235.606 247.622 235.479 C 245.884 235.409,244.434 235.381,244.399 235.416 C 244.364 235.452,244.385 241.209,244.444 248.209 L 244.552 260.938 247.634 260.938 L 250.715 260.938 250.856 252.441 C 251.038 241.443,251.712 239.844,256.163 239.844 C 259.547 239.844,260.134 241.758,260.147 252.832 L 260.156 260.938 263.379 260.937 L 266.602 260.936 266.602 252.441 C 266.602 246.089,266.738 243.622,267.141 242.666 C 268.377 239.736,272.116 238.853,274.249 240.986 L 275.391 242.127 275.391 251.532 L 275.391 260.938 278.734 260.938 L 282.078 260.938 281.957 250.488 L 281.836 240.039 280.767 238.221 C 278.164 233.793,270.116 233.407,266.621 237.542 C 265.974 238.308,265.434 238.669,265.342 238.399 C 264.313 235.373,258.588 233.693,254.852 235.320 M295.439 235.306 C 284.148 238.991,283.599 256.965,294.660 260.818 C 304.249 264.158,312.680 258.285,312.691 248.259 C 312.702 238.510,304.496 232.349,295.439 235.306 M230.674 240.631 C 232.001 241.451,233.203 243.472,233.203 244.883 C 233.203 245.678,233.032 245.703,227.539 245.703 C 221.289 245.703,221.361 245.737,222.408 243.231 C 223.734 240.056,227.717 238.804,230.674 240.631 M303.708 241.403 C 305.415 243.058,305.999 244.779,306.030 248.242 C 306.121 258.366,294.780 259.744,293.532 249.761 C 292.570 242.061,298.966 236.807,303.708 241.403 " stroke="none" fill="#202527" fill-rule="evenodd"></path><path id="path2" d="M83.008 132.770 C 81.914 133.456,64.395 150.968,56.328 159.437 L 52.734 163.211 52.734 200.776 L 52.734 238.341 53.883 239.490 L 55.032 240.639 84.856 240.535 L 114.680 240.430 115.836 239.453 C 121.042 235.056,150.348 204.711,150.735 203.317 C 151.279 201.355,151.332 137.296,150.791 134.961 C 150.060 131.803,152.728 132.031,116.461 132.033 C 85.522 132.034,84.131 132.065,83.008 132.770 M133.507 149.046 L 134.375 149.654 134.375 173.534 L 134.375 197.415 121.300 210.524 L 108.224 223.633 89.307 223.741 C 67.152 223.868,69.050 224.279,69.223 219.391 L 69.336 216.211 76.524 216.016 L 83.711 215.820 100.254 199.069 L 116.797 182.317 116.797 176.948 C 116.797 170.170,117.188 170.549,110.000 170.374 L 104.492 170.240 90.039 184.931 L 75.586 199.621 72.832 199.615 C 71.219 199.612,69.884 199.415,69.609 199.141 C 68.830 198.361,68.954 172.296,69.746 170.398 C 70.384 168.869,88.228 150.561,90.430 149.177 C 92.076 148.142,132.043 148.020,133.507 149.046 " stroke="none" fill="#fb5f4a" fill-rule="evenodd"></path><path id="path3" d="M196.282 171.484 C 196.282 193.291,196.329 202.212,196.387 191.309 C 196.444 180.405,196.444 162.563,196.387 151.660 C 196.329 140.757,196.282 149.678,196.282 171.484 M290.422 171.680 C 290.422 193.594,290.470 202.501,290.527 191.474 C 290.585 180.447,290.585 162.517,290.527 151.630 C 290.470 140.743,290.422 149.766,290.422 171.680 M57.983 157.520 L 56.836 158.789 58.105 157.642 C 58.804 157.011,59.375 156.439,59.375 156.372 C 59.375 156.070,59.053 156.336,57.983 157.520 M110.135 188.965 L 108.789 190.430 110.254 189.084 C 111.060 188.343,111.719 187.684,111.719 187.619 C 111.719 187.320,111.388 187.601,110.135 188.965 M85.156 189.648 C 84.207 190.615,83.519 191.406,83.626 191.406 C 83.734 191.406,84.598 190.615,85.547 189.648 C 86.496 188.682,87.184 187.891,87.077 187.891 C 86.969 187.891,86.105 188.682,85.156 189.648 M241.119 213.562 C 241.712 213.651,242.591 213.649,243.072 213.556 C 243.552 213.464,243.066 213.390,241.992 213.393 C 240.918 213.396,240.525 213.472,241.119 213.562 M257.910 234.644 C 258.286 234.743,258.901 234.743,259.277 234.644 C 259.653 234.546,259.346 234.466,258.594 234.466 C 257.842 234.466,257.534 234.546,257.910 234.644 M272.954 234.651 C 273.440 234.745,274.143 234.741,274.516 234.643 C 274.890 234.546,274.492 234.469,273.633 234.474 C 272.773 234.478,272.468 234.558,272.954 234.651 M298.730 234.651 C 299.214 234.744,300.005 234.744,300.488 234.651 C 300.972 234.558,300.576 234.481,299.609 234.481 C 298.643 234.481,298.247 234.558,298.730 234.651 M118.139 237.207 L 116.992 238.477 118.262 237.329 C 119.445 236.260,119.711 235.938,119.409 235.938 C 119.342 235.938,118.771 236.509,118.139 237.207 M282.199 252.148 C 282.199 257.090,282.255 259.057,282.323 256.521 C 282.391 253.984,282.391 249.941,282.323 247.537 C 282.254 245.132,282.198 247.207,282.199 252.148 M214.955 248.242 C 214.958 249.316,215.034 249.709,215.124 249.116 C 215.214 248.522,215.211 247.643,215.119 247.163 C 215.026 246.682,214.953 247.168,214.955 248.242 " stroke="none" fill="#9fa1a0" fill-rule="evenodd"></path><path id="path4" d="M315.332 146.777 C 320.220 146.839,328.218 146.839,333.105 146.777 C 337.993 146.715,333.994 146.664,324.219 146.664 C 314.443 146.664,310.444 146.715,315.332 146.777 M313.770 179.589 C 317.798 179.653,324.390 179.653,328.418 179.589 C 332.446 179.526,329.150 179.474,321.094 179.474 C 313.037 179.474,309.741 179.526,313.770 179.589 M306.428 195.508 C 306.428 204.102,306.480 207.562,306.543 203.197 C 306.605 198.832,306.605 191.800,306.542 187.572 C 306.479 183.343,306.428 186.914,306.428 195.508 M184.082 225.291 C 186.177 225.361,189.604 225.361,191.699 225.291 C 193.794 225.221,192.080 225.164,187.891 225.164 C 183.701 225.164,181.987 225.221,184.082 225.291 M187.793 231.135 C 188.276 231.228,189.067 231.228,189.551 231.135 C 190.034 231.042,189.639 230.966,188.672 230.966 C 187.705 230.966,187.310 231.042,187.793 231.135 M246.397 235.443 C 247.316 235.525,248.722 235.524,249.522 235.440 C 250.322 235.356,249.570 235.289,247.852 235.290 C 246.133 235.292,245.478 235.360,246.397 235.443 M244.315 248.438 C 244.315 255.420,244.368 258.276,244.433 254.785 C 244.498 251.294,244.498 245.581,244.433 242.090 C 244.368 238.599,244.315 241.455,244.315 248.438 M259.932 252.539 C 259.932 257.266,259.989 259.146,260.057 256.717 C 260.126 254.288,260.126 250.421,260.057 248.123 C 259.988 245.825,259.932 247.813,259.932 252.539 M250.946 253.125 C 250.946 257.529,251.003 259.331,251.073 257.129 C 251.142 254.927,251.142 251.323,251.073 249.121 C 251.003 246.919,250.946 248.721,250.946 253.125 M266.570 252.930 C 266.570 257.227,266.627 259.038,266.697 256.954 C 266.767 254.871,266.768 251.355,266.698 249.142 C 266.628 246.928,266.571 248.633,266.570 252.930 M226.270 249.901 C 228.794 249.969,232.925 249.969,235.449 249.901 C 237.974 249.833,235.908 249.777,230.859 249.777 C 225.811 249.777,223.745 249.833,226.270 249.901 " stroke="none" fill="#747c77" fill-rule="evenodd"></path></g></svg>